<svg width="44" height="44" viewBox="0 0 44 44" fill="none" xmlns="http://www.w3.org/2000/svg">
<path d="M41.1767 11C39.765 11.6417 38.2434 12.0634 36.6667 12.265C38.28 11.2934 39.5267 9.75337 40.1134 7.90171C38.5917 8.81837 36.905 9.46004 35.1267 9.82671C33.6784 8.25004 31.6434 7.33337 29.3334 7.33337C25.025 7.33337 21.505 10.8534 21.505 15.1984C21.505 15.8217 21.5784 16.4267 21.7067 16.995C15.18 16.665 9.36836 13.53 5.50003 8.78171C4.8217 9.93671 4.4367 11.2934 4.4367 12.7234C4.4367 15.455 5.8117 17.875 7.93836 19.25C6.6367 19.25 5.4267 18.8834 4.36336 18.3334V18.3884C4.36336 22.2017 7.0767 25.3917 10.67 26.1067C9.51636 26.4224 8.30521 26.4664 7.1317 26.235C7.62964 27.7979 8.60485 29.1655 9.92023 30.1454C11.2356 31.1254 12.825 31.6685 14.465 31.6984C11.685 33.8992 8.23902 35.0888 4.69336 35.0717C4.07003 35.0717 3.4467 35.035 2.82336 34.9617C6.3067 37.1984 10.45 38.5 14.8867 38.5C29.3334 38.5 37.2717 26.51 37.2717 16.115C37.2717 15.7667 37.2717 15.4367 37.2534 15.0884C38.7934 13.9884 40.1134 12.595 41.1767 11Z" fill="white"/>
</svg>
