<svg width="44" height="44" viewBox="0 0 44 44" fill="none" xmlns="http://www.w3.org/2000/svg">
<path d="M18.3333 27.5L27.8483 22L18.3333 16.5V27.5ZM39.5267 13.145C39.765 14.0066 39.93 15.1616 40.04 16.6283C40.1683 18.095 40.2233 19.36 40.2233 20.46L40.3333 22C40.3333 26.015 40.04 28.9666 39.5267 30.855C39.0683 32.505 38.005 33.5683 36.355 34.0266C35.4933 34.265 33.9167 34.43 31.4967 34.54C29.1133 34.6683 26.9317 34.7233 24.915 34.7233L22 34.8333C14.3183 34.8333 9.53334 34.54 7.64501 34.0266C5.99501 33.5683 4.93167 32.505 4.47334 30.855C4.23501 29.9933 4.07001 28.8383 3.96001 27.3716C3.83167 25.905 3.77667 24.64 3.77667 23.54L3.66667 22C3.66667 17.985 3.96001 15.0333 4.47334 13.145C4.93167 11.495 5.99501 10.4316 7.64501 9.97329C8.50667 9.73496 10.0833 9.56996 12.5033 9.45996C14.8867 9.33163 17.0683 9.27663 19.085 9.27663L22 9.16663C29.6817 9.16663 34.4667 9.45996 36.355 9.97329C38.005 10.4316 39.0683 11.495 39.5267 13.145Z" fill="white"/>
</svg>
