<svg width="44" height="44" viewBox="0 0 44 44" fill="none" xmlns="http://www.w3.org/2000/svg">
<path d="M14.3 3.66675H29.7C35.5667 3.66675 40.3333 8.43341 40.3333 14.3001V29.7001C40.3333 32.5202 39.213 35.2248 37.2189 37.219C35.2248 39.2131 32.5201 40.3334 29.7 40.3334H14.3C8.43334 40.3334 3.66667 35.5667 3.66667 29.7001V14.3001C3.66667 11.4799 4.78697 8.77532 6.7811 6.78118C8.77524 4.78704 11.4799 3.66675 14.3 3.66675ZM13.9333 7.33341C12.1829 7.33341 10.5042 8.02877 9.26643 9.26651C8.02869 10.5043 7.33334 12.183 7.33334 13.9334V30.0667C7.33334 33.7151 10.285 36.6667 13.9333 36.6667H30.0667C31.8171 36.6667 33.4958 35.9714 34.7336 34.7337C35.9713 33.4959 36.6667 31.8172 36.6667 30.0667V13.9334C36.6667 10.2851 33.715 7.33341 30.0667 7.33341H13.9333ZM31.625 10.0834C32.2328 10.0834 32.8157 10.3249 33.2455 10.7546C33.6752 11.1844 33.9167 11.7673 33.9167 12.3751C33.9167 12.9829 33.6752 13.5658 33.2455 13.9955C32.8157 14.4253 32.2328 14.6667 31.625 14.6667C31.0172 14.6667 30.4343 14.4253 30.0046 13.9955C29.5748 13.5658 29.3333 12.9829 29.3333 12.3751C29.3333 11.7673 29.5748 11.1844 30.0046 10.7546C30.4343 10.3249 31.0172 10.0834 31.625 10.0834ZM22 12.8334C24.4312 12.8334 26.7627 13.7992 28.4818 15.5183C30.2009 17.2374 31.1667 19.5689 31.1667 22.0001C31.1667 24.4312 30.2009 26.7628 28.4818 28.4819C26.7627 30.201 24.4312 31.1667 22 31.1667C19.5689 31.1667 17.2373 30.201 15.5182 28.4819C13.7991 26.7628 12.8333 24.4312 12.8333 22.0001C12.8333 19.5689 13.7991 17.2374 15.5182 15.5183C17.2373 13.7992 19.5689 12.8334 22 12.8334ZM22 16.5001C20.5413 16.5001 19.1424 17.0795 18.1109 18.111C17.0795 19.1424 16.5 20.5414 16.5 22.0001C16.5 23.4588 17.0795 24.8577 18.1109 25.8892C19.1424 26.9206 20.5413 27.5001 22 27.5001C23.4587 27.5001 24.8576 26.9206 25.8891 25.8892C26.9205 24.8577 27.5 23.4588 27.5 22.0001C27.5 20.5414 26.9205 19.1424 25.8891 18.111C24.8576 17.0795 23.4587 16.5001 22 16.5001Z" fill="white"/>
</svg>
