<svg width="44" height="44" viewBox="0 0 44 44" fill="none" xmlns="http://www.w3.org/2000/svg">
<path d="M22 3.73999C11.9167 3.73999 3.66667 11.9717 3.66667 22.11C3.66667 31.2767 10.3767 38.885 19.14 40.26V27.4267H14.4833V22.11H19.14V18.0583C19.14 13.4567 21.8717 10.9267 26.07 10.9267C28.0683 10.9267 30.1583 11.275 30.1583 11.275V15.8033H27.8483C25.575 15.8033 24.86 17.215 24.86 18.6633V22.11H29.9567L29.1317 27.4267H24.86V40.26C29.1801 39.5777 33.114 37.3734 35.9515 34.0451C38.789 30.7168 40.3431 26.4837 40.3333 22.11C40.3333 11.9717 32.0833 3.73999 22 3.73999Z" fill="white"/>
</svg>
